<svg xmlns="http://www.w3.org/2000/svg" width="1019" height="652" viewBox="0 0 1019 652" fill="none">
    <g filter="url(#filter0_d_21_26)">
        <path d="M134.901 76.8249C141.528 76.8249 146.901 71.4523 146.901 64.8249V30C146.901 23.3726 152.273 18 158.901 18H259.5C266.127 18 271.5 23.3726 271.5 30V64.8249C271.5 71.4523 276.873 76.8249 283.5 76.8249H630.044H985C991.627 76.8249 997 82.1974 997 88.8249V614C997 620.627 991.627 626 985 626H34C27.3726 626 22 620.627 22 614V88.8249C22 82.1974 27.3726 76.8249 34 76.8249H134.901Z" fill="#FFFEFE"/>
    </g>
    <defs>
        <filter id="filter0_d_21_26" x="0" y="0" width="1019" height="652" filterUnits="userSpaceOnUse" color-interpolation-filters="sRGB">
            <feFlood flood-opacity="0" result="BackgroundImageFix"/>
            <feColorMatrix in="SourceAlpha" type="matrix" values="0 0 0 0 0 0 0 0 0 0 0 0 0 0 0 0 0 0 127 0" result="hardAlpha"/>
            <feOffset dy="4"/>
            <feGaussianBlur stdDeviation="11"/>
            <feComposite in2="hardAlpha" operator="out"/>
            <feColorMatrix type="matrix" values="0 0 0 0 0 0 0 0 0 0 0 0 0 0 0 0 0 0 0.25 0"/>
            <feBlend mode="normal" in2="BackgroundImageFix" result="effect1_dropShadow_21_26"/>
            <feBlend mode="normal" in="SourceGraphic" in2="effect1_dropShadow_21_26" result="shape"/>
        </filter>
    </defs>
</svg>